#N canvas 694 189 944 490 10;
#X obj 41 26 r rain;
#X obj 103 25 r wind;
#X obj 169 29 r time;
#X obj 237 28 r flora;
#X obj 325 29 r altitude;
#X obj 451 31 r animals;
#X obj 570 24 r occlusion-fblrt;
#X obj 755 24 r move;
#X obj 755 50 list trim;
#X obj 744 116 bng 15 250 50 0 empty empty empty 17 7 0 10 -262144
-1 -1;
#X obj 813 132 bng 15 250 50 0 empty empty empty 17 7 0 10 -262144
-1 -1;
#X floatatom 325 51 5 0 0 0 - - -, f 5;
#X floatatom 41 48 5 0 0 0 - - -, f 5;
#X floatatom 103 47 5 0 0 0 - - -, f 5;
#X floatatom 169 51 5 0 0 0 - - -, f 5;
#X floatatom 237 50 5 0 0 0 - - -, f 5;
#X obj 570 46 unpack f f f f;
#X floatatom 570 168 5 0 0 0 - - -, f 5;
#X floatatom 601 144 5 0 0 0 - - -, f 5;
#X floatatom 633 121 5 0 0 0 - - -, f 5;
#X floatatom 665 95 5 0 0 0 - - -, f 5;
#X floatatom 451 53 5 0 0 0 - - -, f 5;
#X floatatom 763 115 5 0 0 0 - - -, f 5;
#X obj 755 75 route walking diving;
#X floatatom 832 132 5 0 0 0 - - -, f 5;
#X obj 445 447 dac~;
#X text 409 329 A TOI DE JOUER;
#X text 345 306 Ici se trouve l'espace de créativité;
#X connect 0 0 12 0;
#X connect 1 0 13 0;
#X connect 2 0 14 0;
#X connect 3 0 15 0;
#X connect 4 0 11 0;
#X connect 5 0 21 0;
#X connect 6 0 16 0;
#X connect 7 0 8 0;
#X connect 8 0 23 0;
#X connect 16 0 17 0;
#X connect 16 1 18 0;
#X connect 16 2 19 0;
#X connect 16 3 20 0;
#X connect 23 0 9 0;
#X connect 23 0 22 0;
#X connect 23 1 10 0;
#X connect 23 1 24 0;
