#N canvas 691 193 1055 490 10;
#X obj 124 36 r rain;
#X obj 186 35 r wind;
#X obj 252 39 r time;
#X obj 320 38 r flora;
#X obj 408 39 r altitude;
#X obj 534 41 r animals;
#X obj 653 34 r occlusion-fblrt;
#X obj 838 34 r move;
#X obj 838 60 list trim;
#X obj 827 126 bng 15 250 50 0 empty empty empty 17 7 0 10 -262144
-1 -1;
#X obj 896 142 bng 15 250 50 0 empty empty empty 17 7 0 10 -262144
-1 -1;
#X floatatom 408 61 5 0 0 0 - - -, f 5;
#X floatatom 124 58 5 0 0 0 - - -, f 5;
#X floatatom 186 57 5 0 0 0 - - -, f 5;
#X floatatom 252 61 5 0 0 0 - - -, f 5;
#X floatatom 320 60 5 0 0 0 - - -, f 5;
#X obj 653 56 unpack f f f f;
#X floatatom 653 178 5 0 0 0 - - -, f 5;
#X floatatom 684 154 5 0 0 0 - - -, f 5;
#X floatatom 716 131 5 0 0 0 - - -, f 5;
#X floatatom 748 105 5 0 0 0 - - -, f 5;
#X floatatom 534 63 5 0 0 0 - - -, f 5;
#X floatatom 846 125 5 0 0 0 - - -, f 5;
#X obj 838 85 route walking diving;
#X floatatom 915 142 5 0 0 0 - - -, f 5;
#X obj 445 447 dac~;
#X text 409 329 A TOI DE JOUER;
#X text 345 306 Ici se trouve l'espace de créativité;
#N canvas 475 437 395 449 network 0;
#X msg 25 113 listen 3000;
#X msg 58 150 listen 0;
#X obj 25 86 loadbang;
#X text 144 151 <- Stop listeneing;
#X text 142 113 <- Start listeneing on port 3000;
#X text 24 17 This is the default gdx-pd remote configuration.;
#X text 24 34 All server/client are automatically started;
#X obj 25 226 oscparse;
#X obj 25 253 list trim;
#X obj 25 303 list split 1;
#X obj 25 371 list;
#X obj 25 335 t b s;
#X obj 32 395 send;
#X obj 25 200 netreceive -b -u;
#X obj 25 277 route send;
#X connect 0 0 13 0;
#X connect 1 0 13 0;
#X connect 2 0 0 0;
#X connect 7 0 8 0;
#X connect 8 0 14 0;
#X connect 9 0 11 0;
#X connect 9 1 10 1;
#X connect 10 0 12 0;
#X connect 11 0 10 0;
#X connect 11 1 12 1;
#X connect 13 0 7 0;
#X connect 14 0 9 0;
#X restore 11 36 pd network;
#X connect 0 0 12 0;
#X connect 1 0 13 0;
#X connect 2 0 14 0;
#X connect 3 0 15 0;
#X connect 4 0 11 0;
#X connect 5 0 21 0;
#X connect 6 0 16 0;
#X connect 7 0 8 0;
#X connect 8 0 23 0;
#X connect 16 0 17 0;
#X connect 16 1 18 0;
#X connect 16 2 19 0;
#X connect 16 3 20 0;
#X connect 23 0 9 0;
#X connect 23 0 22 0;
#X connect 23 1 10 0;
#X connect 23 1 24 0;
