#N canvas 1 81 450 300 10;
#X obj 64 191 r pan;
#X floatatom 158 189 5 0 0 0 - - -, f 5;
#X floatatom 197 189 5 0 0 0 - - -, f 5;
#X obj 135 165 hsl 128 15 -1 1 0 0 empty empty Pan -2 -8 0 10 -262144
-1 -1 6350 1;
#X obj 64 230 panner;
#X obj -29 204 clip~ -1 1;
#X obj 134 131 hsl 128 15 0 1 0 0 empty empty Vol -2 -8 0 10 -262144
-1 -1 6350 1;
#X obj 46 322 outlet~;
#X obj -30 319 outlet~;
#X obj -29 273 *~;
#X obj 11 274 *~;
#X msg 220 69 0.5;
#X obj 11 155 lop~ 5;
#X obj -30 180 *~;
#X obj -29 83 inlet~;
#X obj 229 22 loadbang;
#X msg 255 68 0;
#X text 132 188 L;
#X text 239 188 R;
#X obj 133 31 inlet;
#X obj 166 59 inlet;
#X connect 0 0 4 0;
#X connect 3 0 4 0;
#X connect 4 0 9 1;
#X connect 4 1 10 1;
#X connect 4 2 1 0;
#X connect 4 3 2 0;
#X connect 5 0 9 0;
#X connect 5 0 10 0;
#X connect 6 0 12 0;
#X connect 9 0 8 0;
#X connect 10 0 7 0;
#X connect 11 0 6 0;
#X connect 12 0 13 1;
#X connect 13 0 5 0;
#X connect 14 0 13 0;
#X connect 15 0 11 0;
#X connect 15 0 16 0;
#X connect 16 0 3 0;
#X connect 19 0 6 0;
#X connect 20 0 3 0;
#X coords 0 -1 1 1 200 110 1 100 100;
