#N canvas 59 93 450 300 10;
#X obj 144 24 inlet;
#X obj 103 99 max 0;
#X obj 186 101 min 0;
#X obj 110 144 swap 1;
#X obj 110 166 -;
#X obj 186 156 + 1;
#X obj 186 254 outlet~;
#X obj 110 251 outlet~;
#X obj 114 214 lop~ 5;
#X obj 182 214 lop~ 5;
#X obj 276 246 outlet;
#X obj 352 249 outlet;
#X connect 0 0 1 0;
#X connect 0 0 2 0;
#X connect 1 0 3 0;
#X connect 2 0 5 0;
#X connect 3 0 4 0;
#X connect 3 1 4 1;
#X connect 4 0 8 0;
#X connect 4 0 10 0;
#X connect 5 0 9 0;
#X connect 5 0 11 0;
#X connect 8 0 7 0;
#X connect 9 0 6 0;
