#N canvas 840 109 984 899 10;
#X obj 47 87 noise~;
#X obj 416 645 dac~;
#X obj 120 144 mtof;
#X obj 185 13 hsl 128 15 0 1 0 0 empty empty empty -2 -8 0 10 -262144
-1 -1 0 1;
#X obj 120 120 + 40;
#X obj 120 98 * 70;
#X obj 182 53 r water-level;
#X obj 182 33 s water-level;
#X obj 157 253 *~ 0;
#N canvas 1034 209 676 773 server 0;
#X msg 104 110 listen 3000;
#X obj 153 188 oscparse;
#X msg 206 110 listen 0;
#X obj 153 164 netreceive -b -u 3000;
#X obj 152 237 route send;
#X obj 153 215 list trim;
#X obj 36 458 send;
#X obj 37 342 unpack s f;
#X obj 36 420 f;
#X obj 37 369 t b s;
#X obj 104 56 loadbang;
#X obj 152 287 list split 1;
#X obj 167 385 list;
#X obj 231 342 t b s;
#X obj 182 445 send;
#X connect 0 0 3 0;
#X connect 1 0 5 0;
#X connect 2 0 3 0;
#X connect 3 0 1 0;
#X connect 4 0 11 0;
#X connect 5 0 4 0;
#X connect 7 0 9 0;
#X connect 7 1 8 1;
#X connect 8 0 6 0;
#X connect 9 0 8 0;
#X connect 9 1 6 1;
#X connect 10 0 0 0;
#X connect 11 0 13 0;
#X connect 11 1 12 1;
#X connect 12 0 14 0;
#X connect 13 0 12 0;
#X connect 13 1 14 1;
#X restore 54 30 pd server;
#X floatatom 212 95 5 0 0 0 - - -, f 5;
#X obj 46 183 lop~ 1000 1;
#X obj 256 410 print ground;
#X obj 391 98 r ground-in;
#X obj 403 254 vline~;
#X obj 402 349 *~;
#X obj 484 309 osc~ 300;
#X obj 552 93 r ground-out;
#X obj 564 205 t f b;
#X obj 403 210 t f b;
#X obj 470 266 f 300;
#X msg 403 232 \$1 5 \, 0 100 10;
#X msg 564 227 \$1 5 \, 0 100 10;
#X obj 551 279 f 650;
#X obj 639 309 r water-drop;
#X obj 732 407 print;
#X obj 493 445 vline~;
#X obj 622 482 osc~ 800;
#X obj 622 363 t f f;
#X floatatom 523 366 5 0 0 0 - - -, f 5;
#X obj 611 334 unpack f f;
#X obj 507 524 *~;
#X obj 654 547 hsl 128 15 1 10 1 0 empty empty empty -2 -8 0 10 -262144
-1 -1 0 1;
#X obj 824 459 vsl 15 128 0 127 0 0 empty empty empty 0 -9 0 10 -262144
-1 -1 0 1;
#X obj 824 595 mtof;
#X obj 623 418 * -1200;
#X obj 620 443 + 1300;
#X obj 497 482 *~;
#X obj 503 574 *~;
#X obj 432 392 moses -1;
#X obj 567 568 pow 2;
#X msg 493 423 1 5 \, 0 200 10;
#X obj 567 546 * 0.2;
#X msg 74 500 stop;
#X msg 118 500 clear;
#X obj 100 586 poly 3 1;
#X obj 89 629 pack f f f;
#X obj 89 651 route 1 2 3;
#X obj 65 772 vline~;
#X obj 194 809 osc~ 800;
#X obj 195 745 * -1200;
#X obj 195 767 + 1300;
#X obj 69 809 *~;
#X obj 89 691 unpack f f;
#X obj 89 713 swap;
#X obj 117 853 *~;
#X obj 117 875 dac~;
#X obj 282 766 vline~;
#X obj 411 803 osc~ 800;
#X obj 412 739 * -1200;
#X obj 412 761 + 1300;
#X obj 286 803 *~;
#X obj 306 685 unpack f f;
#X obj 306 707 swap;
#X obj 334 847 *~;
#X obj 334 869 dac~;
#X floatatom 197 616 5 0 0 0 - - -, f 5;
#X obj 505 775 vline~;
#X obj 634 812 osc~ 800;
#X obj 635 748 * -1200;
#X obj 635 770 + 1300;
#X obj 509 812 *~;
#X obj 529 694 unpack f f;
#X obj 529 716 swap;
#X obj 557 856 *~;
#X obj 557 878 dac~;
#X obj 280 579 print;
#X obj 228 492 pack f f;
#X msg 203 539 \$2 \$1;
#X msg 64 750 \$1 5 \, 0 400 10;
#X msg 282 744 \$1 5 \, 0 400 10;
#X msg 505 753 \$1 5 \, 0 400 10;
#X obj 366 432 * 0.2;
#X obj 366 454 pow 1;
#N canvas 989 143 450 543 sugar 1;
#X obj 249 308 r sugar;
#X obj 242 382 print;
#X obj 280 506 print;
#X obj 279 462 r no-sugar;
#X obj 32 244 noise~;
#X obj 73 438 *~;
#X obj 73 460 *~ 0.2;
#X obj 135 361 line~;
#X obj 71 511 dac~;
#X msg 205 437 0 100;
#X msg 135 339 1 30;
#X obj 61 388 clip~ -1 1;
#X obj 139 430 *~;
#X obj 233 247 osc~ 3;
#X obj 145 20 r player-physics;
#X obj 55 187 print;
#X obj 145 42 unpack f f f f f f f f;
#X obj 148 88 f;
#X obj 346 59 f;
#X obj 169 234 * 1;
#X obj 93 290 *~ 0.2;
#X obj 33 358 *~ 10;
#X obj 31 312 lop~ 60;
#X obj 55 117 abs;
#X obj 55 139 / 4;
#X obj 104 233 * 200;
#X obj 104 254 + 10;
#X obj 325 261 *~;
#X obj 327 415 dac~;
#X obj 364 249 osc~ 220;
#X obj 364 156 sig~;
#X obj 391 85 / 6;
#X obj 345 123 clip -1 1;
#X obj 364 178 lop~ 20;
#X obj 335 307 cos~;
#X obj 354 286 +~ 0.25;
#X obj 318 210 *~;
#X obj 335 329 *~ 0.3;
#X obj 364 222 +~ 200;
#X obj 364 200 *~ 10;
#X connect 0 0 1 0;
#X connect 0 0 10 0;
#X connect 3 0 2 0;
#X connect 3 0 9 0;
#X connect 4 0 20 0;
#X connect 4 0 22 0;
#X connect 5 0 6 0;
#X connect 6 0 8 0;
#X connect 6 0 8 1;
#X connect 7 0 12 0;
#X connect 9 0 7 0;
#X connect 10 0 7 0;
#X connect 11 0 5 0;
#X connect 12 0 5 1;
#X connect 13 0 12 1;
#X connect 14 0 16 0;
#X connect 16 3 17 0;
#X connect 16 4 18 0;
#X connect 17 0 19 0;
#X connect 17 0 15 0;
#X connect 17 0 23 0;
#X connect 18 0 31 0;
#X connect 19 0 13 0;
#X connect 20 0 11 0;
#X connect 21 0 11 0;
#X connect 22 0 21 0;
#X connect 23 0 24 0;
#X connect 24 0 25 0;
#X connect 25 0 26 0;
#X connect 26 0 22 1;
#X connect 27 0 35 0;
#X connect 29 0 27 0;
#X connect 30 0 33 0;
#X connect 31 0 32 0;
#X connect 32 0 30 0;
#X connect 33 0 36 0;
#X connect 33 0 36 1;
#X connect 33 0 39 0;
#X connect 34 0 37 0;
#X connect 35 0 34 0;
#X connect 36 0 27 1;
#X connect 37 0 28 0;
#X connect 37 0 28 1;
#X connect 38 0 29 0;
#X connect 39 0 38 0;
#X restore 61 331 pd sugar;
#X connect 0 0 11 0;
#X connect 2 0 11 1;
#X connect 3 0 7 0;
#X connect 4 0 2 0;
#X connect 5 0 4 0;
#X connect 6 0 5 0;
#X connect 6 0 8 1;
#X connect 6 0 10 0;
#X connect 8 0 1 0;
#X connect 8 0 1 1;
#X connect 11 0 8 0;
#X connect 13 0 12 0;
#X connect 13 0 19 0;
#X connect 14 0 15 0;
#X connect 15 0 1 0;
#X connect 15 0 1 1;
#X connect 16 0 15 1;
#X connect 17 0 18 0;
#X connect 18 0 22 0;
#X connect 18 1 23 0;
#X connect 19 0 21 0;
#X connect 19 1 20 0;
#X connect 20 0 16 0;
#X connect 21 0 14 0;
#X connect 22 0 14 0;
#X connect 23 0 16 0;
#X connect 24 0 25 0;
#X connect 24 0 30 0;
#X connect 26 0 37 0;
#X connect 26 0 37 1;
#X connect 27 0 31 1;
#X connect 28 0 39 0;
#X connect 28 0 29 0;
#X connect 28 1 35 0;
#X connect 30 0 42 0;
#X connect 30 0 82 0;
#X connect 30 1 28 0;
#X connect 31 0 38 0;
#X connect 33 0 34 0;
#X connect 34 0 36 1;
#X connect 35 0 36 0;
#X connect 36 0 27 0;
#X connect 36 0 77 1;
#X connect 37 0 31 0;
#X connect 39 1 41 0;
#X connect 40 0 38 1;
#X connect 41 0 26 0;
#X connect 42 0 40 0;
#X connect 43 0 45 0;
#X connect 44 0 45 0;
#X connect 45 0 46 0;
#X connect 45 0 66 0;
#X connect 45 1 46 1;
#X connect 45 2 46 2;
#X connect 46 0 47 0;
#X connect 47 0 53 0;
#X connect 47 1 62 0;
#X connect 47 2 72 0;
#X connect 48 0 52 0;
#X connect 48 0 52 1;
#X connect 49 0 55 1;
#X connect 50 0 51 0;
#X connect 51 0 49 0;
#X connect 52 0 55 0;
#X connect 53 0 54 0;
#X connect 53 1 54 1;
#X connect 54 0 79 0;
#X connect 54 1 49 0;
#X connect 55 0 56 0;
#X connect 55 0 56 1;
#X connect 57 0 61 0;
#X connect 57 0 61 1;
#X connect 58 0 64 1;
#X connect 59 0 60 0;
#X connect 60 0 58 0;
#X connect 61 0 64 0;
#X connect 62 0 63 0;
#X connect 62 1 63 1;
#X connect 63 0 80 0;
#X connect 63 1 58 0;
#X connect 64 0 65 0;
#X connect 64 0 65 1;
#X connect 67 0 71 0;
#X connect 67 0 71 1;
#X connect 68 0 74 1;
#X connect 69 0 70 0;
#X connect 70 0 68 0;
#X connect 71 0 74 0;
#X connect 72 0 73 0;
#X connect 72 1 73 1;
#X connect 73 0 81 0;
#X connect 73 1 68 0;
#X connect 74 0 75 0;
#X connect 74 0 75 1;
#X connect 77 0 78 0;
#X connect 77 0 76 0;
#X connect 78 0 45 0;
#X connect 79 0 48 0;
#X connect 80 0 57 0;
#X connect 81 0 67 0;
#X connect 82 0 83 0;
#X connect 83 0 77 0;
