#N canvas 446 329 450 300 10;
#X obj 130 28 inlet;
#X obj 130 270 outlet;
#X obj 127 210 spigot;
#X obj 98 73 t a b;
#X obj 196 101 random 100;
#X msg 196 146 1;
#X msg 249 145 0;
#X obj 292 49 r \$1-proba;
#X obj 196 124 moses \$2;
#X connect 0 0 3 0;
#X connect 2 0 1 0;
#X connect 3 0 2 0;
#X connect 3 1 4 0;
#X connect 4 0 8 0;
#X connect 5 0 2 1;
#X connect 6 0 2 1;
#X connect 7 0 8 1;
#X connect 8 0 5 0;
#X connect 8 1 6 0;
