#N canvas 554 329 450 300 10;
#X obj 130 55 inlet;
#X obj 130 77 unpack f f;
#X obj 130 185 + 0;
#X obj 130 207 pack f f;
#X obj 130 229 outlet;
#X obj 153 115 r \$1-pitch;
#X connect 0 0 1 0;
#X connect 1 0 2 0;
#X connect 1 1 3 1;
#X connect 2 0 3 0;
#X connect 3 0 4 0;
#X connect 5 0 2 1;
