#N canvas 883 81 945 998 10;
#X declare -path rjlib;
#X obj 86 722 e_tanh~;
#X obj 242 945 dac~;
#X obj 114 10 e_tanhtable~;
#X obj 46 10 loadbang;
#X obj 46 32 s init;
#N canvas 47 53 1873 1027 music-system 0;
#X obj 8 160 bng 15 250 50 0 empty empty empty 17 7 0 10 -262144 -1
-1;
#X obj 66 260 bng 15 250 50 0 empty empty empty 17 7 0 10 -262144 -1
-1;
#X obj 130 363 bng 15 250 50 0 empty empty empty 17 7 0 10 -262144
-1 -1;
#X obj 195 463 bng 15 250 50 0 empty empty empty 17 7 0 10 -262144
-1 -1;
#X obj 8 37 r init;
#X obj 390 188 mtof;
#X obj 425 188 mtof;
#X obj 461 188 mtof;
#X obj 496 188 mtof;
#X msg 1149 130 0.5 1000 5 5 25;
#X obj 391 61 r init;
#X obj 1083 58 r init;
#X obj 1237 730 g_hsl dry 0 1;
#X obj 1237 766 g_hsl amp 0 100;
#X obj 1237 806 g_hsl hall 0 100;
#X obj 1237 846 g_hsl freq 20 22050;
#X obj 1237 886 g_hsl damp 0 100;
#X text 1161 772 Amplitude;
#X text 1160 812 Room Size;
#X text 1111 851 Filter Frequency;
#X text 1174 893 Damping;
#X text 1148 733 Dry/Wet Mix;
#X obj 9 932 e_reverb rev1;
#X obj 9 976 outlet~;
#X obj 97 976 outlet~;
#X obj 1237 677 r init;
#X obj 269 563 bng 15 250 50 0 empty empty empty 17 7 0 10 -262144
-1 -1;
#X obj 336 665 bng 15 250 50 0 empty empty empty 17 7 0 10 -262144
-1 -1;
#X obj 390 160 unpack f f f f f f;
#X obj 532 189 mtof;
#X obj 567 189 mtof;
#X msg 391 134 60 62 64 65 67 69;
#X text 525 137 major;
#X text 552 108 minor;
#X msg 417 108 60 62 63 65 67 69;
#X msg 455 84 60 62 63 65 66 68;
#X text 597 85 diminished;
#X obj 8 179 random-walk mv1 1000 5000;
#X obj 8 207 m-probagate mv1 97;
#X obj 8 235 music-voice mv1 440;
#X obj 66 310 m-probagate mv2 95;
#X obj 130 414 m-probagate mv3 90;
#X obj 195 512 m-probagate mv4 90;
#X obj 269 616 m-probagate mv5 90;
#X obj 336 718 m-probagate mv6 90;
#X obj 1083 163 t l;
#X obj 1083 195 s mv1-adsr;
#X obj 1097 217 s mv2-adsr;
#X obj 1112 239 s mv3-adsr;
#X obj 1194 196 s mv4-adsr;
#X obj 1202 216 s mv5-adsr;
#X obj 1215 238 s mv6-adsr;
#X obj 390 210 s mv1-f;
#X obj 66 337 music-voice mv2 880;
#X obj 130 440 music-voice mv3 660;
#X obj 195 538 music-voice mv4 1280;
#X obj 269 640 music-voice mv5 660;
#X obj 336 742 music-voice mv6 1280;
#X obj 425 230 s mv2-f;
#X obj 461 209 s mv3-f;
#X obj 496 229 s mv4-f;
#X obj 532 210 s mv5-f;
#X obj 567 230 s mv6-f;
#X msg 1083 80 1 5 25 25 1000;
#X text 1198 81 default;
#X text 1245 106 blip;
#X text 1265 133 reverse;
#X msg 1403 81 500 500;
#X msg 1391 108 500 5000;
#X msg 1376 133 1000 5000;
#X msg 1364 159 2000 6000;
#X obj 1364 57 r init;
#X obj 1364 185 unpack f f;
#X text 1085 38 env presets - all voices;
#X obj 1364 222 s mv1-speed-low;
#X obj 1378 242 s mv2-speed-low;
#X obj 1393 262 s mv3-speed-low;
#X obj 1410 282 s mv4-speed-low;
#X obj 1418 302 s mv5-speed-low;
#X obj 1431 322 s mv6-speed-low;
#X obj 1496 219 s mv1-speed-range;
#X obj 1510 239 s mv2-speed-range;
#X obj 1525 259 s mv3-speed-range;
#X obj 1542 279 s mv4-speed-range;
#X obj 1550 299 s mv5-speed-range;
#X obj 1563 319 s mv6-speed-range;
#X text 1239 651 reverb params - all voices;
#X obj 752 56 r init;
#X obj 751 155 unpack f f f f f f;
#X text 1361 36 note density presets - all voices;
#X text 751 34 proba presets - per voice;
#X text 390 39 chords presets - per voice;
#X obj 751 183 s mv1-proba;
#X obj 759 203 s mv2-proba;
#X obj 769 224 s mv3-proba;
#X obj 779 244 s mv4-proba;
#X obj 789 264 s mv5-proba;
#X obj 803 284 s mv6-proba;
#X msg 752 129 100 80 60 100 95 60;
#X msg 778 103 75 75 75 75 75 75;
#X msg 816 79 50 50 95 50 92 90;
#X obj 66 282 random-walk mv2 1000 5000;
#X obj 130 385 random-walk mv3 1000 50000;
#X obj 195 485 random-walk mv4 1500 7500;
#X obj 269 585 random-walk mv5 2000 9000;
#X obj 336 687 random-walk mv6 3000 9999;
#X msg 1237 704 amp 80 \, hall 80 \, freq 6000 \, damp 60 \, dry 0.25
;
#X msg 1111 105 1 1 25 5 50;
#X connect 0 0 37 0;
#X connect 1 0 101 0;
#X connect 2 0 102 0;
#X connect 3 0 103 0;
#X connect 4 0 0 0;
#X connect 4 0 1 0;
#X connect 4 0 2 0;
#X connect 4 0 3 0;
#X connect 4 0 26 0;
#X connect 4 0 27 0;
#X connect 5 0 52 0;
#X connect 6 0 58 0;
#X connect 7 0 59 0;
#X connect 8 0 60 0;
#X connect 9 0 45 0;
#X connect 10 0 31 0;
#X connect 11 0 63 0;
#X connect 12 0 13 0;
#X connect 13 0 14 0;
#X connect 14 0 15 0;
#X connect 15 0 16 0;
#X connect 16 0 22 1;
#X connect 22 0 23 0;
#X connect 22 1 24 0;
#X connect 25 0 106 0;
#X connect 26 0 104 0;
#X connect 27 0 105 0;
#X connect 28 0 5 0;
#X connect 28 1 6 0;
#X connect 28 2 7 0;
#X connect 28 3 8 0;
#X connect 28 4 29 0;
#X connect 28 5 30 0;
#X connect 29 0 61 0;
#X connect 30 0 62 0;
#X connect 31 0 28 0;
#X connect 34 0 28 0;
#X connect 35 0 28 0;
#X connect 37 0 38 0;
#X connect 38 0 39 0;
#X connect 39 0 22 0;
#X connect 40 0 53 0;
#X connect 41 0 54 0;
#X connect 42 0 55 0;
#X connect 43 0 56 0;
#X connect 44 0 57 0;
#X connect 45 0 46 0;
#X connect 45 0 47 0;
#X connect 45 0 48 0;
#X connect 45 0 49 0;
#X connect 45 0 50 0;
#X connect 45 0 51 0;
#X connect 53 0 22 0;
#X connect 54 0 22 0;
#X connect 55 0 22 0;
#X connect 56 0 22 0;
#X connect 57 0 22 0;
#X connect 63 0 45 0;
#X connect 67 0 72 0;
#X connect 68 0 72 0;
#X connect 69 0 72 0;
#X connect 70 0 72 0;
#X connect 71 0 69 0;
#X connect 72 0 74 0;
#X connect 72 0 75 0;
#X connect 72 0 76 0;
#X connect 72 0 77 0;
#X connect 72 0 78 0;
#X connect 72 0 79 0;
#X connect 72 1 80 0;
#X connect 72 1 81 0;
#X connect 72 1 82 0;
#X connect 72 1 83 0;
#X connect 72 1 84 0;
#X connect 72 1 85 0;
#X connect 87 0 98 0;
#X connect 88 0 92 0;
#X connect 88 1 93 0;
#X connect 88 2 94 0;
#X connect 88 3 95 0;
#X connect 88 4 96 0;
#X connect 88 5 97 0;
#X connect 98 0 88 0;
#X connect 99 0 88 0;
#X connect 100 0 88 0;
#X connect 101 0 40 0;
#X connect 102 0 41 0;
#X connect 103 0 42 0;
#X connect 104 0 43 0;
#X connect 105 0 44 0;
#X connect 106 0 12 0;
#X connect 107 0 45 0;
#X restore 33 75 pd music-system;
#X obj 178 727 e_tanh~;
#N canvas 485 81 1263 998 music-gran-system 1;
#X obj 278 133 g_nbx loopstart;
#X text 235 113 loopstart and duration are in msec;
#X msg 173 194 start;
#X msg 173 220 stop;
#N canvas 48 81 457 346 loadsample 0;
#X floatatom 252 177 8 0 0 3 dur_in_smps - -, f 8;
#X floatatom 205 144 8 0 0 3 dur_in_ms - -, f 8;
#X symbolatom 174 177 10 0 0 3 table_name - -, f 10;
#X obj 174 107 unpack s f f f;
#X floatatom 269 145 6 0 0 3 samplerate - -, f 6;
#X obj 40 118 list;
#X msg 40 142 table \$1 \, sr \$4;
#X msg 264 43 sr 44100;
#X msg 337 44 info;
#X obj 40 246 outlet;
#X obj 165 -14 inlet;
#X obj 174 78 u_samplebank ambiances;
#X msg 165 16 open ../ambiences.wav \, info;
#X connect 3 0 2 0;
#X connect 3 1 1 0;
#X connect 3 2 0 0;
#X connect 3 3 4 0;
#X connect 5 0 6 0;
#X connect 6 0 9 0;
#X connect 7 0 11 0;
#X connect 8 0 11 0;
#X connect 10 0 12 0;
#X connect 11 0 3 0;
#X connect 11 0 5 0;
#X connect 12 0 11 0;
#X restore 402 32 pd loadsample;
#X obj 172 259 bng 15 250 50 0 empty empty empty 17 7 0 10 -262144
-1 -1;
#X text 354 171 min. duration: 10 ms;
#X obj 402 9 bng 15 250 50 0 empty empty empty 17 7 0 10 -262144 -1
-1;
#X obj 63 -37 s RJLIB;
#X msg 63 -58 sf-samplerate 44100;
#X text 141 -82 Set soundfile samplerate globally:;
#X obj 278 166 g_nbx dur;
#X obj 278 200 g_nbx chunk-size;
#X obj 278 229 g_nbx transposition;
#X obj 63 -98 r init;
#X obj 598 137 g_nbx loopstart;
#X text 555 117 loopstart and duration are in msec;
#X msg 493 198 start;
#X msg 493 224 stop;
#X obj 492 263 bng 15 250 50 0 empty empty empty 17 7 0 10 -262144
-1 -1;
#X text 674 175 min. duration: 10 ms;
#X obj 598 170 g_nbx dur;
#X obj 598 204 g_nbx chunk-size;
#X obj 598 233 g_nbx transposition;
#X obj 137 299 s_loopsmooth amb1;
#X obj 457 303 s_loopsmooth amb2;
#X obj 984 133 g_nbx loopstart;
#X text 941 113 loopstart and duration are in msec;
#X msg 879 194 start;
#X msg 879 220 stop;
#X obj 878 259 bng 15 250 50 0 empty empty empty 17 7 0 10 -262144
-1 -1;
#X text 1060 171 min. duration: 10 ms;
#X obj 984 166 g_nbx dur;
#X obj 984 200 g_nbx chunk-size;
#X obj 984 229 g_nbx transposition;
#N canvas 48 81 457 346 loadsample 0;
#X floatatom 252 177 8 0 0 3 dur_in_smps - -, f 8;
#X floatatom 205 144 8 0 0 3 dur_in_ms - -, f 8;
#X symbolatom 174 177 10 0 0 3 table_name - -, f 10;
#X obj 174 107 unpack s f f f;
#X floatatom 269 145 6 0 0 3 samplerate - -, f 6;
#X obj 40 118 list;
#X msg 40 142 table \$1 \, sr \$4;
#X msg 264 43 sr 44100;
#X msg 337 44 info;
#X obj 174 78 u_samplebank \$0-mytable;
#X obj 40 246 outlet;
#X obj 89 -16 inlet;
#X msg 89 14 open ../Musique_intro.wav \, info;
#X connect 3 0 2 0;
#X connect 3 1 1 0;
#X connect 3 2 0 0;
#X connect 3 3 4 0;
#X connect 5 0 6 0;
#X connect 6 0 10 0;
#X connect 7 0 9 0;
#X connect 8 0 9 0;
#X connect 9 0 3 0;
#X connect 9 0 5 0;
#X connect 11 0 12 0;
#X connect 12 0 9 0;
#X restore 891 43 pd loadsample;
#X obj 891 20 bng 15 250 50 0 empty empty empty 17 7 0 10 -262144 -1
-1;
#X obj 138 577 e_pan;
#X obj 180 540 / 127;
#X obj 183 510 hsl 128 15 0 127 0 0 empty empty empty -2 -8 0 10 -262144
-1 -1 0 1;
#X text 186 492 L < < < M > > > R;
#X text 317 510 Pan value;
#X obj 458 573 e_pan;
#X obj 500 536 / 127;
#X obj 503 506 hsl 128 15 0 127 0 0 empty empty empty -2 -8 0 10 -262144
-1 -1 12700 1;
#X text 506 488 L < < < M > > > R;
#X text 637 506 Pan value;
#X obj 844 563 e_pan;
#X obj 886 526 / 127;
#X obj 889 496 hsl 128 15 0 127 0 0 empty empty empty -2 -8 0 10 -262144
-1 -1 6800 1;
#X text 892 478 L < < < M > > > R;
#X text 1023 496 Pan value;
#X obj 215 830 outlet~;
#X obj 517 818 outlet~;
#X msg 1024 77 loopstart \$1;
#X obj 1030 26 bng 15 250 50 0 empty empty empty 17 7 0 10 -262144
-1 -1;
#X obj 1029 5 metro 1000;
#X obj 1032 -59 tgl 15 0 empty empty empty 17 7 0 10 -262144 -1 -1
1 1;
#X msg 611 92 loopstart \$1;
#X obj 617 10 bng 15 250 50 0 empty empty empty 17 7 0 10 -262144 -1
-1;
#X obj 616 -11 metro 1000;
#X obj 619 -75 tgl 15 0 empty empty empty 17 7 0 10 -262144 -1 -1 1
1;
#X obj 611 65 + 45000;
#X msg 287 88 loopstart \$1;
#X obj 293 6 bng 15 250 50 0 empty empty empty 17 7 0 10 -262144 -1
-1;
#X obj 292 -15 metro 1000;
#X obj 295 -49 tgl 15 0 empty empty empty 17 7 0 10 -262144 -1 -1 1
1;
#X obj 288 35 random 45000;
#X obj 287 61 + 0;
#X obj 612 39 random 50000;
#X obj 1025 55 random 30000;
#X obj 843 299 s_loopsmooth amb3;
#X obj 496 -188 r init;
#X msg 516 -85 dur 1000 \, chunk-size 1000 \, transposition 0;
#X msg 839 -132 dur 1000 \, chunk-size 1000 \, transposition -24;
#X connect 0 0 11 0;
#X connect 2 0 24 0;
#X connect 3 0 24 0;
#X connect 4 0 24 1;
#X connect 4 0 25 1;
#X connect 5 0 24 0;
#X connect 7 0 4 0;
#X connect 9 0 8 0;
#X connect 11 0 12 0;
#X connect 12 0 13 0;
#X connect 13 0 24 1;
#X connect 14 0 9 0;
#X connect 15 0 21 0;
#X connect 17 0 25 0;
#X connect 18 0 25 0;
#X connect 19 0 25 0;
#X connect 21 0 22 0;
#X connect 22 0 23 0;
#X connect 23 0 25 1;
#X connect 24 0 37 0;
#X connect 25 0 42 0;
#X connect 26 0 32 0;
#X connect 28 0 71 0;
#X connect 29 0 71 0;
#X connect 30 0 71 0;
#X connect 32 0 33 0;
#X connect 33 0 34 0;
#X connect 34 0 71 1;
#X connect 35 0 71 1;
#X connect 36 0 35 0;
#X connect 37 0 52 0;
#X connect 37 1 53 0;
#X connect 38 0 37 1;
#X connect 39 0 38 0;
#X connect 42 0 52 0;
#X connect 42 1 53 0;
#X connect 43 0 42 1;
#X connect 44 0 43 0;
#X connect 47 0 52 0;
#X connect 47 1 53 0;
#X connect 48 0 47 1;
#X connect 49 0 48 0;
#X connect 54 0 26 0;
#X connect 55 0 70 0;
#X connect 56 0 55 0;
#X connect 57 0 56 0;
#X connect 58 0 15 0;
#X connect 59 0 69 0;
#X connect 60 0 59 0;
#X connect 61 0 60 0;
#X connect 62 0 58 0;
#X connect 63 0 0 0;
#X connect 64 0 67 0;
#X connect 65 0 64 0;
#X connect 66 0 65 0;
#X connect 67 0 68 0;
#X connect 68 0 63 0;
#X connect 69 0 62 0;
#X connect 70 0 54 0;
#X connect 71 0 47 0;
#X connect 72 0 66 0;
#X connect 72 0 61 0;
#X connect 72 0 57 0;
#X connect 72 0 2 0;
#X connect 72 0 17 0;
#X connect 72 0 28 0;
#X connect 72 0 7 0;
#X connect 72 0 36 0;
#X connect 72 0 73 0;
#X connect 72 0 74 0;
#X connect 73 0 0 0;
#X connect 73 0 15 0;
#X connect 74 0 26 0;
#X restore 207 81 pd music-gran-system;
#X text 1164 101 rain => 0-1;
#X text 1166 122 wind => km/h 0-100;
#X text 1167 152 time => 0-1;
#X text 1168 182 flora => -1 / 1 contexte végétalisé (-1 désert
/ 0.5 foret);
#X text 1169 208 altitude => des pieds par rapport à l'eau en mètre
;
#X text 1167 233 move => action (diving \, walking \, swimming \, flying)
/ vitesse( si =0 \, ne bouge pas);
#X text 1166 271 animals => nombre d'animaux dans un certain range
;
#X text 1161 310 oclusion-fblrt => front back left right top distance
pour chaque direction (noramisé 0-1) 1 == pas d'oclusion;
#X obj 522 189 r rain;
#X obj 542 212 r wind;
#X obj 561 242 r time;
#X obj 603 278 r flora;
#X obj 623 311 r altitude;
#X obj 638 344 r move;
#X obj 657 370 r animals;
#X obj 667 402 r occlusion-fblrt;
#N canvas 183 116 712 637 rain 0;
#X obj 379 616 outlet~;
#X obj 376 347 *~ 1;
#N canvas 63 86 466 316 rh_scalelog 0;
#X obj 20 155 exp;
#X obj 20 107 *;
#X obj 20 130 +;
#X obj 98 87 log;
#X obj 194 84 log;
#X obj 123 123 t b f;
#X obj 123 145 -;
#X obj 20 183 outlet;
#X obj 20 19 inlet;
#X obj 98 23 inlet;
#X obj 194 24 inlet;
#X connect 0 0 7 0;
#X connect 1 0 2 0;
#X connect 2 0 0 0;
#X connect 3 0 2 1;
#X connect 3 0 5 0;
#X connect 4 0 6 0;
#X connect 5 0 6 0;
#X connect 5 1 6 1;
#X connect 6 0 1 1;
#X connect 8 0 1 0;
#X connect 9 0 3 0;
#X connect 10 0 4 0;
#X restore 399 310 pd rh_scalelog;
#X msg 446 286 0.1;
#X msg 492 286 10;
#X obj 399 225 inlet;
#X obj 446 258 r init;
#X obj 175 46 noise~;
#X obj 189 124 *~;
#X obj 379 494 lop~ 500;
#X obj 213 296 *~ 0.25;
#X obj 216 203 clip~ -0.5 0.5;
#X obj 210 260 hip~ 2000;
#X obj 185 168 *~ 10;
#X connect 1 0 9 0;
#X connect 2 0 1 1;
#X connect 3 0 2 1;
#X connect 4 0 2 2;
#X connect 5 0 2 0;
#X connect 6 0 3 0;
#X connect 6 0 4 0;
#X connect 7 0 8 0;
#X connect 7 0 8 1;
#X connect 8 0 13 0;
#X connect 9 0 0 0;
#X connect 10 0 1 0;
#X connect 11 0 12 0;
#X connect 12 0 10 0;
#X connect 13 0 11 0;
#X restore 358 610 pd rain;
#N canvas 197 90 716 641 wind 0;
#X obj 379 615 outlet~;
#X obj 380 550 *~ 1;
#N canvas 0 50 466 316 rh_scalelog 0;
#X obj 20 155 exp;
#X obj 20 107 *;
#X obj 20 130 +;
#X obj 98 87 log;
#X obj 194 84 log;
#X obj 123 123 t b f;
#X obj 123 145 -;
#X obj 20 183 outlet;
#X obj 20 19 inlet;
#X obj 98 23 inlet;
#X obj 194 24 inlet;
#X connect 0 0 7 0;
#X connect 1 0 2 0;
#X connect 2 0 0 0;
#X connect 3 0 2 1;
#X connect 3 0 5 0;
#X connect 4 0 6 0;
#X connect 5 0 6 0;
#X connect 5 1 6 1;
#X connect 6 0 1 1;
#X connect 8 0 1 0;
#X connect 9 0 3 0;
#X connect 10 0 4 0;
#X restore 403 513 pd rh_scalelog;
#X msg 450 489 0.1;
#X msg 496 489 10;
#N canvas 0 50 705 639 wind 0;
#X obj 62 313 vcf~ 600 23;
#X obj 161 314 vcf~ 600 23;
#X obj 62 377 *~;
#X obj 26 189 lop~ 1;
#X obj 97 175 lop~ 0.1;
#X obj 198 174 lop~ 0.19;
#X obj 98 281 +~;
#X obj 197 12 osc~ 0.03;
#X obj 198 284 +~;
#X obj 244 37 +~;
#X obj 270 11 osc~ 0.3;
#X obj 83 405 bp~ 1000 7;
#X obj 63 473 outlet~;
#X msg 233 290 20;
#X obj 23 215 *~;
#X text 339 1 control;
#X obj 97 98 *~;
#X obj 97 57 noise~;
#X obj 61 346 *~ 0.15;
#X msg 134 291 14;
#X obj 244 83 *~ 300;
#X obj 197 227 *~ 180000;
#X obj 98 198 *~ 100000;
#X obj 245 59 *~ 0.25;
#X obj 23 241 *~ 1000;
#X obj 23 269 +~ 0.65;
#X obj 243 105 +~ 100;
#X obj 197 252 clip~ 300 1000;
#X obj 98 222 clip~ 250 1000;
#X obj 59 433 *~ 44;
#X obj 340 16 inlet~;
#X obj 256 310 r \$0-loadbang;
#X connect 0 0 18 0;
#X connect 1 0 18 0;
#X connect 2 0 11 0;
#X connect 3 0 14 0;
#X connect 3 0 14 1;
#X connect 4 0 22 0;
#X connect 5 0 21 0;
#X connect 6 0 0 1;
#X connect 7 0 9 0;
#X connect 8 0 1 1;
#X connect 9 0 23 0;
#X connect 10 0 9 1;
#X connect 11 0 29 0;
#X connect 13 0 1 2;
#X connect 14 0 24 0;
#X connect 16 0 0 0;
#X connect 16 0 1 0;
#X connect 16 0 3 0;
#X connect 16 0 4 0;
#X connect 16 0 5 0;
#X connect 17 0 16 0;
#X connect 18 0 2 0;
#X connect 19 0 0 2;
#X connect 20 0 26 0;
#X connect 21 0 27 0;
#X connect 22 0 28 0;
#X connect 23 0 20 0;
#X connect 24 0 25 0;
#X connect 25 0 2 1;
#X connect 26 0 6 1;
#X connect 26 0 8 1;
#X connect 27 0 8 0;
#X connect 28 0 6 0;
#X connect 29 0 12 0;
#X connect 30 0 16 1;
#X connect 31 0 13 0;
#X connect 31 0 19 0;
#X restore 122 181 pd wind;
#X obj 121 139 inlet;
#X obj 403 431 inlet;
#X obj 450 461 r init;
#X obj 380 581 *~ 0.5;
#X connect 1 0 9 0;
#X connect 2 0 1 1;
#X connect 3 0 2 1;
#X connect 4 0 2 2;
#X connect 5 0 1 0;
#X connect 6 0 5 0;
#X connect 7 0 2 0;
#X connect 8 0 3 0;
#X connect 8 0 4 0;
#X connect 9 0 0 0;
#X restore 451 677 pd wind;
#X obj 360 564 clip 0 1;
#X obj 451 642 clip 0 1;
#X obj 204 791 lop~ 500;
#X obj 289 790 lop~ 500;
#X obj 750 545 r move;
#X obj 748 622 list trim;
#X msg 458 826 20000;
#X obj 646 695 route diving;
#X obj 594 727 bng 15 250 50 0 empty empty empty 17 7 0 10 -262144
-1 -1;
#X obj 698 741 bng 15 250 50 0 empty empty empty 17 7 0 10 -262144
-1 -1;
#X obj 444 577 / 150;
#X obj 629 830 s reverse;
#X obj 714 830 s unreverse;
#X obj 495 602 / 300;
#X msg 444 765 500, f 9;
#X obj 428 249 print;
#X obj 210 9 declare -path rjlib;
#X floatatom 575 391 5 0 0 0 - - -, f 5;
#X floatatom 599 433 5 0 0 0 - - -, f 5;
#X floatatom 640 491 5 0 0 0 - - -, f 5;
#X connect 0 0 28 0;
#X connect 3 0 4 0;
#X connect 5 0 0 0;
#X connect 5 1 6 0;
#X connect 6 0 29 0;
#X connect 7 0 0 0;
#X connect 7 1 6 0;
#X connect 16 0 26 0;
#X connect 17 0 36 0;
#X connect 17 0 39 0;
#X connect 19 0 43 0;
#X connect 20 0 44 0;
#X connect 22 0 45 0;
#X connect 26 0 24 0;
#X connect 27 0 25 0;
#X connect 28 0 1 0;
#X connect 29 0 1 1;
#X connect 30 0 31 0;
#X connect 31 0 33 0;
#X connect 32 0 28 1;
#X connect 32 0 29 1;
#X connect 33 0 34 0;
#X connect 33 1 35 0;
#X connect 34 0 40 0;
#X connect 35 0 32 0;
#X connect 36 0 27 0;
#X connect 39 0 25 1;
#X connect 40 0 29 1;
#X connect 40 0 28 1;
