#N canvas 380 414 450 300 10;
#X obj 63 193 *~;
#X obj 64 267 outlet~;
#X obj 18 29 inlet;
#X obj 301 106 unpack f f f f f;
#X obj 244 170 adsr~ 1 0 500 50 800;
#X obj 62 237 *~ 0.55;
#X obj 298 77 r \$1-adsr;
#X obj 64 74 osc~ \$2;
#X obj 82 8 r \$1-f;
#X connect 0 0 5 0;
#X connect 2 0 4 0;
#X connect 3 0 4 1;
#X connect 3 1 4 2;
#X connect 3 2 4 3;
#X connect 3 3 4 4;
#X connect 3 4 4 5;
#X connect 4 0 0 1;
#X connect 5 0 1 0;
#X connect 6 0 3 0;
#X connect 7 0 0 0;
#X connect 8 0 7 0;
