#N canvas 48 85 450 300 10;
#X obj 38 48 delay 500;
#X obj 48 128 random 50;
#X obj 46 153 / 100;
#X obj 46 176 + 0.2;
#X obj 140 143 t f b;
#X obj 43 5 inlet bang;
#X obj 53 220 outlet lvl;
#X obj 138 117 + \$2;
#X obj 137 93 random \$3;
#X obj 219 3 r \$1-speed-low;
#X obj 235 24 r \$1-speed-range;
#X connect 0 0 1 0;
#X connect 0 0 8 0;
#X connect 1 0 2 0;
#X connect 2 0 3 0;
#X connect 3 0 6 0;
#X connect 4 0 0 1;
#X connect 4 1 0 0;
#X connect 5 0 0 0;
#X connect 7 0 4 0;
#X connect 8 0 7 0;
#X connect 9 0 7 1;
#X connect 10 0 8 1;
