#N canvas 898 333 571 677 10;
#X obj 38 48 delay 500;
#X obj 46 153 / 100;
#X obj 354 151 t f b;
#X obj 43 5 inlet bang;
#X obj 219 3 inlet speed-low;
#X obj 235 24 inlet speed-range;
#X obj 352 125 + 1000;
#X obj 47 305 list prepend play-nappes;
#X obj 46 336 outlet;
#X obj 37 92 t b b b b;
#X msg 205 356 set \$1 \$2 \$3 \$4 \$5 \$6;
#X msg 190 398 play-nappes 0.1 -6 4242 5496 0;
#X obj 48 128 random 15;
#X obj 46 176 + 0.1;
#X obj 341 193 + 4000;
#X obj 230 161 random 5000;
#X obj 47 261 pack f f f f;
#X obj 134 197 - 6;
#X obj 134 146 random 3;
#X obj 351 101 random 500;
#X connect 0 0 9 0;
#X connect 1 0 13 0;
#X connect 2 0 0 1;
#X connect 2 0 14 0;
#X connect 2 1 0 0;
#X connect 3 0 0 0;
#X connect 4 0 6 0;
#X connect 5 0 19 0;
#X connect 6 0 2 0;
#X connect 7 0 8 0;
#X connect 7 0 10 0;
#X connect 9 0 12 0;
#X connect 9 1 18 0;
#X connect 9 2 15 0;
#X connect 9 3 19 0;
#X connect 10 0 11 0;
#X connect 12 0 1 0;
#X connect 13 0 16 0;
#X connect 14 0 16 3;
#X connect 15 0 16 2;
#X connect 16 0 7 0;
#X connect 17 0 16 1;
#X connect 18 0 17 0;
#X connect 19 0 6 0;
