#N canvas 107 263 1127 682 10;
#X obj 121 329 step~;
#X obj 200 477 dac~;
#X obj 176 437 spatial~;
#X obj 121 218 route step bip;
#X obj 182 327 bip~;
#X obj 133 71 list split 1;
#X obj 133 15 r sfx;
#X obj 273 237 list trim;
#X msg 121 183 \$1;
#X text 409 209 TODO : multi-synth;
#X obj 410 26 r sfx-id;
#X obj 403 128 select 0 1 2 3;
#X obj 396 86 list split 1;
#X obj 406 331 multi~;
#X msg 402 267 60 40 5 60;
#X msg 468 298 20 40 5 600;
#X obj 943 316 noise~;
#X obj 943 338 hip~ 4000;
#X obj 549 157 metro 500;
#X obj 643 297 step~;
#X obj 704 295 bip~;
#X obj 754 297 multi~;
#X msg 750 233 60 40 5 60;
#X obj 743 334 spatial~;
#X obj 817 350 spatial~;
#X obj 648 349 spatial~;
#X obj 820 303 multi~;
#X msg 821 271 20 40 5 600;
#X obj 579 356 spatial~;
#X obj 781 21 r sfx-position;
#X obj 675 26 r sfx-bang;
#X obj 675 75 route 0 1 2 3;
#X obj 553 21 r sfx-freq;
#X obj 549 124 t b f;
#X obj 621 165 metro 500;
#X obj 621 132 t b f;
#X obj 699 165 metro 500;
#X obj 699 132 t b f;
#X obj 776 168 metro 500;
#X obj 776 135 t b f;
#X obj 593 456 *~ 1;
#X obj 678 464 *~ 1;
#X obj 625 517 dac~;
#X obj 497 99 moses 1;
#X obj 603 107 moses 1;
#X obj 687 105 moses 1;
#X obj 770 111 moses 1;
#X obj 941 399 spatial~;
#X obj 781 76 route 0 1 2 3 4;
#X obj 554 60 route 0 1 2 3 4;
#X obj 944 363 *~;
#X connect 0 0 2 0;
#X connect 2 0 1 0;
#X connect 2 1 1 1;
#X connect 3 0 0 0;
#X connect 3 1 4 0;
#X connect 4 0 2 0;
#X connect 5 0 8 0;
#X connect 5 1 7 0;
#X connect 6 0 5 0;
#X connect 7 0 2 1;
#X connect 8 0 3 0;
#X connect 10 0 12 0;
#X connect 11 0 0 0;
#X connect 11 1 4 0;
#X connect 11 2 14 0;
#X connect 11 3 15 0;
#X connect 12 0 11 0;
#X connect 12 1 7 0;
#X connect 13 0 2 0;
#X connect 14 0 13 0;
#X connect 15 0 13 0;
#X connect 16 0 17 0;
#X connect 17 0 50 0;
#X connect 18 0 19 0;
#X connect 19 0 28 0;
#X connect 20 0 25 0;
#X connect 21 0 23 0;
#X connect 22 0 21 0;
#X connect 23 0 40 0;
#X connect 23 1 41 0;
#X connect 24 0 40 0;
#X connect 24 1 41 0;
#X connect 25 0 40 0;
#X connect 25 1 41 0;
#X connect 26 0 24 0;
#X connect 27 0 26 0;
#X connect 28 0 40 0;
#X connect 28 1 41 0;
#X connect 29 0 48 0;
#X connect 30 0 31 0;
#X connect 31 0 19 0;
#X connect 31 1 20 0;
#X connect 31 2 22 0;
#X connect 31 3 27 0;
#X connect 32 0 49 0;
#X connect 33 0 18 0;
#X connect 33 1 18 1;
#X connect 34 0 20 0;
#X connect 35 0 34 0;
#X connect 35 1 34 1;
#X connect 36 0 22 0;
#X connect 37 0 36 0;
#X connect 37 1 36 1;
#X connect 38 0 27 0;
#X connect 39 0 38 0;
#X connect 39 1 38 1;
#X connect 40 0 42 0;
#X connect 41 0 42 1;
#X connect 43 0 18 0;
#X connect 43 1 33 0;
#X connect 44 0 34 0;
#X connect 44 1 35 0;
#X connect 45 0 36 0;
#X connect 45 1 37 0;
#X connect 46 0 38 0;
#X connect 46 1 39 0;
#X connect 47 0 40 0;
#X connect 47 1 41 0;
#X connect 48 0 28 1;
#X connect 48 1 25 1;
#X connect 48 2 23 1;
#X connect 48 3 24 1;
#X connect 48 4 47 1;
#X connect 49 0 43 0;
#X connect 49 1 44 0;
#X connect 49 2 45 0;
#X connect 49 3 46 0;
#X connect 49 4 50 1;
#X connect 50 0 47 0;
