#N canvas 941 129 939 911 10;
#X obj 106 90 cnv 16 16 32 from_origin to_origin + 4 24 0 14 -4160
-262144 0;
#X obj 368 246 r from_node;
#X obj 214 137 cnv 16 16 16 from_node to_node . 4 5 0 14 -233017 -66577
0;
#X obj 455 295 r from_origin;
#X obj 369 328 unpack f f;
#X obj 369 427 -;
#X msg 483 231 \; to_origin get_pos \; to_node get_pos;
#X obj 436 427 -;
#X obj 455 347 unpack f f;
#X obj 369 533 atan2;
#X obj 347 190 metro 100;
#X floatatom 445 728 5 0 0 0 - - -, f 5;
#X obj 341 156 tgl 15 0 empty empty empty 17 7 0 10 -262144 -1 -1 0
1;
#X obj 580 679 atan2;
#X msg 582 633 1 1;
#X obj 582 655 unpack f f;
#X floatatom 512 766 5 0 0 0 - - -, f 5;
#X obj 580 701 * 4;
#X obj 580 723 print;
#X obj 368 584 / 3.14159;
#X obj 368 611 * 180;
#X obj 469 563 *;
#X obj 437 455 t f f f;
#X obj 454 622 +;
#X obj 454 644 sqrt;
#X floatatom 454 666 5 0 0 0 - - -, f 5;
#X obj 369 449 t f f f;
#X obj 395 480 *;
#X obj 409 141 loadbang;
#X obj 366 373 + 8;
#X obj 407 374 + 8;
#X obj 467 388 + 8;
#X obj 319 726 list;
#X obj 373 690 pack f f;
#X obj 347 215 t b b;
#X obj 263 673 tgl 15 0 empty empty empty 17 7 0 10 -262144 -1 -1 0
1;
#X obj 508 389 + 24;
#X obj 372 652 u-rotate 90;
#X obj 46 615 tgl 15 0 empty empty empty 17 7 0 10 -262144 -1 -1 0
1;
#X obj 100 694 % 360;
#X obj 17 697 - 180;
#X obj 342 9 hsl 128 15 1 1000 1 0 empty empty empty -2 -8 0 10 -262144
-1 -1 1300 1;
#X obj 339 29 s reverb;
#X obj 34 473 engine;
#X obj 343 52 hsl 128 15 0 1 0 0 empty empty empty -2 -8 0 10 -262144
-1 -1 0 1;
#X obj 340 72 s rev-level;
#X obj 342 97 hsl 128 15 0 1 0 0 empty empty empty -2 -8 0 10 -262144
-1 -1 0 1;
#X obj 339 117 s rev-feed;
#X obj 483 9 hsl 128 15 1 1000 1 0 empty empty empty -2 -8 0 10 -262144
-1 -1 0 1;
#X obj 480 29 s early-time;
#X obj 483 51 hsl 128 15 0 1 0 0 empty empty empty -2 -8 0 10 -262144
-1 -1 0 1;
#X obj 480 71 s early-level;
#X obj 66 672 f 0;
#X obj 274 878 s sfx;
#X obj 279 837 list trim;
#X obj 43 738 list append 100;
#X msg 126 629 0;
#X obj 95 768 t b l;
#X obj 155 846 list;
#X obj 287 485 bng 32 250 50 0 empty empty empty 17 7 0 10 -262144
-1 -1;
#X obj 27 244 vradio 15 1 0 8 empty empty empty 0 -8 0 10 -204786 -1
-1 1;
#X obj 27 369 list;
#X obj 25 400 list trim;
#X obj 20 441 s sfx-id;
#X obj 167 196 bng 24 250 50 0 empty empty N 6 12 0 20 -204786 -1 -1
;
#X obj 242 542 list append 100;
#X msg 167 226 -90;
#X obj 168 343 bng 24 250 50 0 empty empty S 6 12 0 20 -204786 -1 -1
;
#X msg 168 372 90;
#X obj 227 265 bng 24 250 50 0 empty empty E 6 12 0 20 -204786 -1 -1
;
#X obj 102 262 bng 24 250 50 0 empty empty W 6 12 0 20 -204786 -1 -1
;
#X msg 227 294 180;
#X msg 102 291 0;
#X obj 226 197 bng 24 250 50 0 empty empty empty 6 12 0 20 -204786
-1 -1;
#X obj 101 197 bng 24 250 50 0 empty empty empty 6 12 0 20 -204786
-1 -1;
#X obj 225 340 bng 24 250 50 0 empty empty empty 6 12 0 20 -204786
-1 -1;
#X obj 100 337 bng 24 250 50 0 empty empty empty 6 12 0 20 -204786
-1 -1;
#X msg 225 369 135;
#X msg 100 366 45;
#X msg 101 227 -45;
#X obj 137 510 list prepend;
#X obj 272 396 nbx 6 14 -1e+37 1e+37 0 0 empty empty empty 0 -8 0 14
-204786 -33289 -258113 247 256;
#X msg 226 229 -135;
#X obj 153 271 bng 24 250 50 0 empty empty R 6 12 0 20 -13381 -1 -262144
;
#X obj 175 573 t b b;
#X obj 137 602 random 360;
#X obj 230 597 random 200;
#X obj 234 624 + 40;
#X obj 186 666 pack f f;
#X obj 215 843 select;
#X obj 181 719 unpack f f;
#X obj 268 758 unpack f f;
#X obj 179 758 / 45;
#X obj 177 794 i;
#X obj 220 793 * 45;
#X obj 163 303 bng 15 250 50 0 empty empty empty 17 7 0 10 -262144
-4034 -1;
#X floatatom 184 818 5 0 0 0 - - -, f 5;
#X floatatom 222 771 5 0 0 0 - - -, f 5;
#X obj 174 628 - 180;
#X floatatom 268 780 5 0 0 0 - - -, f 5;
#X obj 182 303 bng 15 250 50 0 empty empty empty 17 7 0 10 -262144
-258113 -1;
#X obj 184 271 bng 24 250 50 0 empty empty empty 6 12 0 20 -13381 -1
-262144;
#X obj 178 776 + 0.5;
#X obj 263 693 metro 100;
#X obj 346 787 list prepend any;
#X obj 100 672 + 1;
#X obj 47 635 metro 13;
#X obj 707 267 s sfx-freq;
#X msg 701 177 0 500;
#X msg 634 179 0 0;
#X obj 700 382 s sfx-position;
#X msg 652 302 0 90 200;
#X msg 692 329 0 -90 100;
#X msg 763 186 4 1;
#X msg 763 162 4 0;
#X msg 748 299 4 90 200;
#X msg 789 326 4 -90 100;
#X connect 1 0 4 0;
#X connect 3 0 8 0;
#X connect 4 0 29 0;
#X connect 4 1 30 0;
#X connect 5 0 26 0;
#X connect 7 0 22 0;
#X connect 8 0 31 0;
#X connect 8 1 36 0;
#X connect 9 0 19 0;
#X connect 10 0 34 0;
#X connect 12 0 10 0;
#X connect 13 0 17 0;
#X connect 14 0 15 0;
#X connect 15 0 13 0;
#X connect 15 1 13 1;
#X connect 17 0 16 0;
#X connect 17 0 18 0;
#X connect 19 0 20 0;
#X connect 20 0 37 0;
#X connect 21 0 23 1;
#X connect 22 0 9 1;
#X connect 22 1 21 0;
#X connect 22 2 21 1;
#X connect 23 0 24 0;
#X connect 24 0 25 0;
#X connect 24 0 33 1;
#X connect 26 0 9 0;
#X connect 26 1 27 0;
#X connect 26 2 27 1;
#X connect 27 0 23 0;
#X connect 28 0 10 0;
#X connect 29 0 5 0;
#X connect 30 0 7 0;
#X connect 31 0 5 1;
#X connect 32 0 104 0;
#X connect 33 0 32 1;
#X connect 33 0 61 1;
#X connect 34 1 6 0;
#X connect 35 0 103 0;
#X connect 36 0 7 1;
#X connect 37 0 33 0;
#X connect 37 0 11 0;
#X connect 38 0 106 0;
#X connect 39 0 52 1;
#X connect 40 0 55 0;
#X connect 41 0 42 0;
#X connect 44 0 45 0;
#X connect 46 0 47 0;
#X connect 48 0 49 0;
#X connect 50 0 51 0;
#X connect 52 0 40 0;
#X connect 52 0 105 0;
#X connect 54 0 53 0;
#X connect 55 0 57 0;
#X connect 56 0 52 1;
#X connect 57 0 58 0;
#X connect 57 1 58 1;
#X connect 58 0 104 0;
#X connect 59 0 32 0;
#X connect 60 0 61 0;
#X connect 60 0 80 1;
#X connect 61 0 62 0;
#X connect 62 0 63 0;
#X connect 64 0 66 0;
#X connect 65 0 80 0;
#X connect 65 0 91 0;
#X connect 66 0 65 0;
#X connect 67 0 68 0;
#X connect 68 0 65 0;
#X connect 69 0 71 0;
#X connect 70 0 72 0;
#X connect 71 0 65 0;
#X connect 72 0 65 0;
#X connect 73 0 82 0;
#X connect 74 0 79 0;
#X connect 75 0 77 0;
#X connect 76 0 78 0;
#X connect 77 0 65 0;
#X connect 78 0 65 0;
#X connect 79 0 65 0;
#X connect 80 0 62 0;
#X connect 81 0 65 1;
#X connect 81 0 88 1;
#X connect 82 0 65 0;
#X connect 83 0 84 0;
#X connect 84 0 85 0;
#X connect 84 1 86 0;
#X connect 85 0 98 0;
#X connect 86 0 87 0;
#X connect 88 0 80 0;
#X connect 88 0 90 0;
#X connect 89 0 95 0;
#X connect 89 1 100 0;
#X connect 90 0 92 0;
#X connect 90 0 97 0;
#X connect 91 0 89 0;
#X connect 91 0 99 0;
#X connect 92 0 102 0;
#X connect 93 0 94 0;
#X connect 94 0 89 1;
#X connect 94 0 96 0;
#X connect 98 0 88 0;
#X connect 101 0 88 0;
#X connect 102 0 93 0;
#X connect 103 0 32 0;
#X connect 104 0 54 0;
#X connect 105 0 39 0;
#X connect 106 0 52 0;
#X connect 108 0 107 0;
#X connect 109 0 107 0;
#X connect 111 0 110 0;
#X connect 112 0 110 0;
#X connect 113 0 107 0;
#X connect 114 0 107 0;
#X connect 115 0 110 0;
#X connect 116 0 110 0;
