#N canvas 989 274 450 551 10;
#X obj 106 9 inlet;
#X obj 106 55 unpack f f f f;
#X obj 105 357 outlet~;
#X obj 106 152 osc~;
#X obj 106 187 *~ 1;
#X obj 106 124 mtof;
#X obj 187 144 pack f f;
#X msg 187 166 1 \$1 \, 0 \$2 \$1;
#X obj 187 188 vline~;
#X obj 102 279 *~;
#X obj 102 217 +~ 0.25;
#X obj 102 239 cos~;
#X connect 0 0 1 0;
#X connect 1 0 5 0;
#X connect 1 1 4 1;
#X connect 1 2 6 0;
#X connect 1 3 6 1;
#X connect 3 0 4 0;
#X connect 4 0 10 0;
#X connect 5 0 3 0;
#X connect 6 0 7 0;
#X connect 7 0 8 0;
#X connect 8 0 9 1;
#X connect 9 0 2 0;
#X connect 10 0 11 0;
#X connect 11 0 9 0;
