#N canvas 65 85 450 388 10;
#X obj 93 58 inlet~ audio;
#X obj 244 59 inlet control;
#X obj 244 81 unpack f f f;
#X msg 244 103 \$1 20;
#X obj 244 125 line~;
#X obj 99 209 *~;
#X obj 274 169 pack f f;
#X obj 146 249 spatial~;
#X obj 147 325 outlet~ left;
#X obj 199 292 outlet~ right;
#X connect 0 0 5 0;
#X connect 1 0 2 0;
#X connect 2 0 3 0;
#X connect 2 1 6 0;
#X connect 2 2 6 1;
#X connect 3 0 4 0;
#X connect 4 0 5 1;
#X connect 5 0 7 0;
#X connect 6 0 7 1;
#X connect 7 0 8 0;
#X connect 7 1 9 0;
