#N canvas 615 432 646 624 10;
#X obj 95 47 inlet~;
#X obj 222 41 inlet;
#X obj 222 81 unpack f f;
#X obj 222 103 / 180;
#X obj 91 294 *~;
#X obj 222 183 line~ 50;
#X obj 319 168 swap 1;
#X obj 319 190 -;
#X obj 319 212 line~ 50;
#X obj 302 294 *~;
#X obj 160 344 vd~ \$0-delay;
#X obj 82 346 *~ 0.8;
#X obj 201 268 lop~ 100;
#X obj 222 125 abs;
#X obj 506 208 swap 1;
#X obj 506 230 -;
#X obj 433 264 *~ 1;
#X floatatom 403 204 5 0 0 0 - - -, f 5;
#X obj 479 317 *~ 1;
#X obj 471 145 / 180;
#X obj 471 188 abs;
#X obj 506 252 pow 2;
#X obj 409 230 lop~ 150;
#X obj 488 283 pow 2;
#X obj 299 332 delwrite~ \$0-delay 2000;
#X obj 160 309 sig~ 40;
#X obj 43 572 outlet~;
#X obj 298 421 / 40;
#X obj 297 513 clip 0 1;
#X obj 298 443 max 1;
#X obj 298 465 swap 1;
#X obj 298 487 /;
#X obj 297 540 swap 1;
#X obj 297 562 -;
#X obj 142 583 *~ 1;
#X obj 90 486 *~ 1;
#X obj 68 524 *~ 1;
#X floatatom 451 505 5 0 0 0 - - -, f 5;
#X obj 136 534 lop~ 50;
#X obj 378 590 * 5000;
#X floatatom 297 606 5 0 0 0 - - -, f 5;
#X obj 367 549 *;
#X obj 160 366 *~ 0.1;
#X obj 159 281 r early-time;
#X obj 222 375 r early-level;
#X obj 127 395 lop~ 1500;
#X obj 471 123 u-rotate 0;
#X connect 0 0 4 0;
#X connect 0 0 12 0;
#X connect 0 0 18 0;
#X connect 0 0 22 0;
#X connect 1 0 2 0;
#X connect 2 0 3 0;
#X connect 2 0 46 0;
#X connect 2 1 27 0;
#X connect 3 0 13 0;
#X connect 4 0 11 0;
#X connect 5 0 4 1;
#X connect 6 0 7 0;
#X connect 6 1 7 1;
#X connect 7 0 8 0;
#X connect 8 0 9 1;
#X connect 9 0 24 0;
#X connect 10 0 42 0;
#X connect 11 0 35 0;
#X connect 12 0 9 0;
#X connect 13 0 5 0;
#X connect 13 0 6 0;
#X connect 14 0 15 0;
#X connect 14 1 15 1;
#X connect 15 0 21 0;
#X connect 16 0 35 0;
#X connect 18 0 35 0;
#X connect 19 0 20 0;
#X connect 20 0 14 0;
#X connect 20 0 17 0;
#X connect 20 0 23 0;
#X connect 21 0 16 1;
#X connect 22 0 16 0;
#X connect 23 0 18 1;
#X connect 25 0 10 0;
#X connect 27 0 29 0;
#X connect 28 0 32 0;
#X connect 28 0 36 1;
#X connect 28 0 37 0;
#X connect 28 0 41 0;
#X connect 28 0 41 1;
#X connect 28 0 34 1;
#X connect 29 0 30 0;
#X connect 30 0 31 0;
#X connect 30 1 31 1;
#X connect 31 0 28 0;
#X connect 32 0 33 0;
#X connect 32 1 33 1;
#X connect 34 0 26 0;
#X connect 35 0 36 0;
#X connect 35 0 38 0;
#X connect 38 0 34 0;
#X connect 39 0 40 0;
#X connect 39 0 38 1;
#X connect 41 0 39 0;
#X connect 42 0 45 0;
#X connect 43 0 25 0;
#X connect 44 0 42 1;
#X connect 45 0 35 0;
#X connect 46 0 19 0;
