#N canvas 548 363 711 628 10;
#X obj 259 311 outlet~;
#X obj 422 311 outlet~;
#X obj 234 23 inlet~;
#X obj 443 6 inlet;
#X obj 444 36 unpack f f;
#X obj 445 164 pack f f;
#X obj 527 162 pack f f;
#X obj 566 88 * 1;
#X obj 31 380 clip~ -0.99 0.99;
#X obj 84 207 r reverb;
#X obj 81 240 line~;
#X obj 82 283 delread4~ \$0-reverb;
#X obj 37 170 delwrite~ \$0-reverb 2000;
#X obj 82 327 hip~ 700;
#X obj 86 358 *~ 9;
#X obj 82 305 lop~ 100;
#X obj 361 384 *~ 0.1;
#X obj 235 47 delwrite~ \$0-doppler 2000;
#X obj 235 110 delread4~ \$0-doppler;
#X obj 298 421 / 40;
#X obj 297 513 clip 0 1;
#X obj 298 443 max 1;
#X obj 298 465 swap 1;
#X obj 298 487 /;
#X obj 298 563 + 100;
#X obj 13 445 *~ 0.3;
#X obj 454 371 r rev-level;
#X obj 86 464 clip 0 0.999;
#X obj 89 429 r rev-feed;
#X obj 423 224 spatial-mono;
#X obj 298 585 sig~;
#X obj 236 86 lop~ 0.1;
#X obj 297 535 * -10;
#X obj 260 224 spatial-mono;
#X obj 463 109 u-rotate -20;
#X obj 403 88 u-rotate -160;
#X connect 2 0 17 0;
#X connect 3 0 4 0;
#X connect 4 0 34 0;
#X connect 4 0 35 0;
#X connect 4 1 7 0;
#X connect 5 0 33 1;
#X connect 6 0 29 1;
#X connect 7 0 6 1;
#X connect 7 0 5 1;
#X connect 7 0 19 0;
#X connect 8 0 25 0;
#X connect 9 0 10 0;
#X connect 10 0 11 0;
#X connect 11 0 15 0;
#X connect 13 0 14 0;
#X connect 13 0 16 0;
#X connect 14 0 8 0;
#X connect 15 0 13 0;
#X connect 16 0 0 0;
#X connect 16 0 1 0;
#X connect 18 0 12 0;
#X connect 18 0 29 0;
#X connect 18 0 33 0;
#X connect 19 0 21 0;
#X connect 20 0 32 0;
#X connect 21 0 22 0;
#X connect 22 0 23 0;
#X connect 22 1 23 1;
#X connect 23 0 20 0;
#X connect 24 0 30 0;
#X connect 25 0 12 0;
#X connect 26 0 16 1;
#X connect 27 0 25 1;
#X connect 28 0 27 0;
#X connect 29 0 1 0;
#X connect 30 0 31 0;
#X connect 31 0 18 0;
#X connect 32 0 24 0;
#X connect 33 0 0 0;
#X connect 34 0 6 0;
#X connect 35 0 5 0;
