#N canvas 862 299 450 300 10;
#X obj 222 96 noise~;
#X obj 86 1 bng 15 250 50 0 empty empty empty 17 7 0 10 -262144 -1
-1;
#X obj 86 43 vline~;
#X obj 85 177 *~;
#X obj 86 65 *~;
#X obj 183 226 *~ 4;
#X obj 37 19 inlet;
#X obj 36 226 outlet~;
#X msg 86 21 1 5 \, 0 40 5;
#X obj 136 127 bp~ 700 6;
#X obj 275 152 bp~ 4600 12;
#X obj 275 174 *~ 0.1;
#X obj 196 161 bp~ 200 6;
#X obj 334 203 bp~ 3600 144;
#X obj 334 225 *~ 1.3;
#X connect 0 0 9 0;
#X connect 0 0 10 0;
#X connect 0 0 12 0;
#X connect 0 0 13 0;
#X connect 1 0 8 0;
#X connect 2 0 4 0;
#X connect 2 0 4 1;
#X connect 3 0 7 0;
#X connect 4 0 3 0;
#X connect 5 0 3 1;
#X connect 6 0 8 0;
#X connect 8 0 2 0;
#X connect 9 0 5 0;
#X connect 10 0 11 0;
#X connect 11 0 5 0;
#X connect 12 0 5 0;
#X connect 13 0 14 0;
#X connect 14 0 5 0;
