#N canvas 455 480 450 402 10;
#X obj 165 153 *;
#X obj 104 218 +;
#X obj 92 44 inlet vector2d;
#X obj 92 76 unpack f f;
#X obj 82 157 *;
#X obj 104 240 sqrt;
#X obj 104 262 pack f f;
#X obj 104 284 outlet polar2d;
#X obj 235 198 atan2;
#X obj 159 127 t f f f;
#X obj 76 131 t f f f;
#X obj 236 169 swap;
#X connect 0 0 1 1;
#X connect 1 0 5 0;
#X connect 2 0 3 0;
#X connect 3 0 10 0;
#X connect 3 1 9 0;
#X connect 4 0 1 0;
#X connect 5 0 6 0;
#X connect 6 0 7 0;
#X connect 8 0 6 1;
#X connect 9 0 0 0;
#X connect 9 1 0 1;
#X connect 9 2 11 1;
#X connect 10 0 4 0;
#X connect 10 1 4 1;
#X connect 10 2 11 0;
#X connect 11 0 8 0;
#X connect 11 1 8 1;
