#N canvas 400 424 450 300 10;
#X obj 144 138 u-polar2d;
#X floatatom 144 34 5 0 0 0 - - -, f 5;
#X floatatom 200 34 5 0 0 0 - - -, f 5;
#X obj 146 91 pack f f;
#X obj 200 53 t b f;
#X obj 144 160 unpack f f;
#X floatatom 144 182 5 0 0 0 - - -, f 5;
#X floatatom 209 184 5 0 0 0 - - -, f 5;
#X connect 0 0 5 0;
#X connect 1 0 3 0;
#X connect 2 0 4 0;
#X connect 3 0 0 0;
#X connect 4 0 3 0;
#X connect 4 1 3 1;
#X connect 5 0 6 0;
#X connect 5 1 7 0;
