#N canvas 629 318 450 300 10;
#X obj 134 43 inlet;
#X obj 94 203 outlet;
#X obj 144 82 + \$1;
#X obj 144 104 + 180;
#X obj 144 126 % 360;
#X obj 49 168 - 180;
#X obj 144 148 + 360;
#X obj 144 170 % 360;
#X connect 0 0 2 0;
#X connect 2 0 3 0;
#X connect 3 0 4 0;
#X connect 4 0 6 0;
#X connect 5 0 1 0;
#X connect 6 0 7 0;
#X connect 7 0 5 0;
