#N canvas 1028 321 450 430 10;
#X obj 47 87 noise~;
#X obj 158 306 dac~;
#X obj 120 144 mtof;
#X obj 185 13 hsl 128 15 0 1 0 0 empty empty empty -2 -8 0 10 -262144
-1 -1 1500 1;
#X obj 120 120 + 40;
#X obj 120 98 * 70;
#X obj 182 53 r water-level;
#X obj 182 33 s water-level;
#X obj 157 253 *~ 0;
#N canvas 1058 177 676 773 server 0;
#X msg 104 110 listen 3000;
#X obj 153 188 oscparse;
#X msg 206 110 listen 0;
#X obj 153 164 netreceive -b -u 3000;
#X obj 152 237 route send;
#X obj 153 215 list trim;
#X obj 151 379 send;
#X obj 152 263 unpack s f;
#X obj 151 341 f;
#X obj 152 290 t b s;
#X obj 104 56 loadbang;
#X obj 29 296 print net;
#X connect 0 0 3 0;
#X connect 1 0 5 0;
#X connect 2 0 3 0;
#X connect 3 0 1 0;
#X connect 4 0 7 0;
#X connect 5 0 4 0;
#X connect 5 0 11 0;
#X connect 7 0 9 0;
#X connect 7 1 8 1;
#X connect 8 0 6 0;
#X connect 9 0 8 0;
#X connect 9 1 6 1;
#X connect 10 0 0 0;
#X restore 54 30 pd server;
#X floatatom 212 95 5 0 0 0 - - -, f 5;
#X obj 46 183 lop~ 1000 1;
#X connect 0 0 11 0;
#X connect 2 0 11 1;
#X connect 3 0 7 0;
#X connect 4 0 2 0;
#X connect 5 0 4 0;
#X connect 6 0 5 0;
#X connect 6 0 8 1;
#X connect 6 0 10 0;
#X connect 8 0 1 0;
#X connect 8 0 1 1;
#X connect 11 0 8 0;
