#N canvas 809 178 984 844 10;
#X obj 47 87 noise~;
#X obj 205 366 dac~;
#X obj 120 144 mtof;
#X obj 185 13 hsl 128 15 0 1 0 0 empty empty empty -2 -8 0 10 -262144
-1 -1 0 1;
#X obj 120 120 + 40;
#X obj 120 98 * 70;
#X obj 182 53 r water-level;
#X obj 182 33 s water-level;
#X obj 157 253 *~ 0;
#N canvas 1049 189 676 773 server 0;
#X msg 104 110 listen 3000;
#X obj 153 188 oscparse;
#X msg 206 110 listen 0;
#X obj 153 164 netreceive -b -u 3000;
#X obj 152 237 route send;
#X obj 153 215 list trim;
#X obj 151 379 send;
#X obj 152 263 unpack s f;
#X obj 151 341 f;
#X obj 152 290 t b s;
#X obj 104 56 loadbang;
#X obj 29 296 print net;
#X connect 0 0 3 0;
#X connect 1 0 5 0;
#X connect 2 0 3 0;
#X connect 3 0 1 0;
#X connect 4 0 7 0;
#X connect 5 0 4 0;
#X connect 7 0 9 0;
#X connect 7 1 8 1;
#X connect 8 0 6 0;
#X connect 9 0 8 0;
#X connect 9 1 6 1;
#X connect 10 0 0 0;
#X restore 54 30 pd server;
#X floatatom 212 95 5 0 0 0 - - -, f 5;
#X obj 46 183 lop~ 1000 1;
#X obj 256 410 print ground;
#X obj 391 98 r ground-in;
#X obj 403 254 vline~;
#X obj 402 349 *~;
#X obj 484 309 osc~ 300;
#X obj 552 93 r ground-out;
#X obj 564 205 t f b;
#X obj 403 210 t f b;
#X obj 470 266 f 300;
#X msg 403 232 \$1 5 \, 0 100 10;
#X msg 564 227 \$1 5 \, 0 100 10;
#X obj 551 279 f 650;
#X obj 639 309 r water-drop;
#X obj 639 331 print;
#X obj 495 401 vline~;
#X obj 494 496 *~;
#X obj 560 492 osc~ 800;
#X obj 622 363 t f f;
#X obj 623 418 * 2000;
#X msg 495 379 1 5 \, 0 100 10;
#X obj 623 440 + 500;
#X connect 0 0 11 0;
#X connect 2 0 11 1;
#X connect 3 0 7 0;
#X connect 4 0 2 0;
#X connect 5 0 4 0;
#X connect 6 0 5 0;
#X connect 6 0 8 1;
#X connect 6 0 10 0;
#X connect 8 0 1 0;
#X connect 8 0 1 1;
#X connect 11 0 8 0;
#X connect 13 0 12 0;
#X connect 13 0 19 0;
#X connect 14 0 15 0;
#X connect 15 0 1 0;
#X connect 15 0 1 1;
#X connect 16 0 15 1;
#X connect 17 0 18 0;
#X connect 18 0 22 0;
#X connect 18 1 23 0;
#X connect 19 0 21 0;
#X connect 19 1 20 0;
#X connect 20 0 16 0;
#X connect 21 0 14 0;
#X connect 22 0 14 0;
#X connect 23 0 16 0;
#X connect 24 0 25 0;
#X connect 24 0 29 0;
#X connect 26 0 27 0;
#X connect 27 0 1 0;
#X connect 27 0 1 1;
#X connect 28 0 27 1;
#X connect 29 0 31 0;
#X connect 29 1 30 0;
#X connect 30 0 32 0;
#X connect 31 0 26 0;
#X connect 32 0 28 0;
